PathFileType	3	(X/Y/Z)	D:\Vicon Database\Healthy Subjects\S0040\Jan. 30, 2020\Force Plate Walk 7.trc
DataRate	CameraRate	NumFrames	NumMarkers	Units	OrigDataRate	OrigDataStartFrame	OrigNumFrames
100.0	100.0	4	53	mm	100.0	473	319	
Frame#	Time	sternum_cluster1			sternum_cluster2			sternum_cluster3			left_asis			right_asis			left_psis			right_psis			sacrum_cluster1			sacrum_cluster2			sacrum_cluster3			left_lat_femoral_epicondyle			left_anterior_thigh15			left_anterior_thigh25			left_anterior_thigh50			left_lateral_thigh25			left_lateral_thigh50			left_thigh_cluster1			left_thigh_cluster2			left_thigh_cluster3			left_fibular_head			left_tibial_tuberosity			left_anterior_shank30			left_lateral_malleolus			left_shank_cluster1			left_shank_cluster2			left_shank_cluster3			left_heel			left_metatarsal2			left_foot_cluster1			left_foot_cluster2			left_foot_cluster3			right_lat_femoral_epicondyle			right_anterior_thigh15			right_anterior_thigh25			right_anterior_thigh50			right_lateral_thigh25			right_lateral_thigh50			right_thigh_cluster1			right_thigh_cluster2			right_thigh_cluster3			right_fibular_head			right_tibial_tuberosity			right_lateral_distal_shank			right_anterior_shank30			right_lateral_malleolus			right_shank_cluster1			right_shank_cluster2			right_shank_cluster3			right_heel			right_metatarsal2			right_foot_cluster1			right_foot_cluster2			right_foot_cluster3			
		X1	Y1	Z1	X2	Y2	Z2	X3	Y3	Z3	X4	Y4	Z4	X5	Y5	Z5	X6	Y6	Z6	X7	Y7	Z7	X8	Y8	Z8	X9	Y9	Z9	X10	Y10	Z10	X11	Y11	Z11	X12	Y12	Z12	X13	Y13	Z13	X14	Y14	Z14	X15	Y15	Z15	X16	Y16	Z16	X17	Y17	Z17	X18	Y18	Z18	X19	Y19	Z19	X20	Y20	Z20	X21	Y21	Z21	X22	Y22	Z22	X23	Y23	Z23	X24	Y24	Z24	X25	Y25	Z25	X26	Y26	Z26	X27	Y27	Z27	X28	Y28	Z28	X29	Y29	Z29	X30	Y30	Z30	X31	Y31	Z31	X32	Y32	Z32	X33	Y33	Z33	X34	Y34	Z34	X35	Y35	Z35	X36	Y36	Z36	X37	Y37	Z37	X38	Y38	Z38	X39	Y39	Z39	X40	Y40	Z40	X41	Y41	Z41	X42	Y42	Z42	X43	Y43	Z43	X44	Y44	Z44	X45	Y45	Z45	X46	Y46	Z46	X47	Y47	Z47	X48	Y48	Z48	X49	Y49	Z49	X50	Y50	Z50	X51	Y51	Z51	X52	Y52	Z52	X53	Y53	Z53	
473	4.72	265.10349	1411.7118	-158.93266	253.1358	1384.4794	-149.43932	250.91565	1387.5393	-187.23314	281.91473	1036.2036	-46.73391	281.11612	1034.4353	-296.32147	447.36627	1047.7437	-89.467148	446.3042	1053.2469	-207.10323	456.86905	1107.2639	-154.48491	462.34225	1082.2833	-167.04971	465.3754	1075.8693	-128.15923	157.67084	539.78491	-23.445215	104.72578	649.53339	-73.145447	125.45789	732.44287	-56.126926	186.32126	853.43787	-40.872276	220.99568	678.7774	2.4036632	278.18362	816.66748	30.981754	261.5932	771.59509	36.953106	252.54587	742.94623	32.766663	222.9976	765.56195	38.852509	123.59998	468.20074	-17.000423	67.718979	479.44711	-71.634727	4.6526623	235.84337	-81.768219	8.6905575	108.81269	-53.747719	49.023331	428.37378	-99.447594	35.731716	403.74426	-91.151726	49.797649	398.95026	-126.95922	59.76865	49.981247	-96.264374	-135.25587	142.42703	-82.72731	-63.182293	160.34131	-78.930939	-91.191383	154.64323	-68.339684	-93.672867	162.21718	-105.8877	504.67014	527.41541	-294.62341	390.27164	574.69373	-242.67607	332.01208	644.25665	-247.27533	283.29422	768.63635	-263.86038	439.72897	673.6546	-321.89276	389.69415	811.04016	-349.53433	415.20859	764.74139	-353.91049	413.108	736.51471	-350.16992	448.99869	747.18878	-342.68814	545.88831	470.89996	-296.17877	499.83273	437.84915	-251.66333	679.4624	234.4489	-277.30029	631.35297	225.54623	-232.68019	729.02216	139.53247	-261.26117	538.41876	383.77838	-195.39134	555.44354	361.6767	-188.27567				813.91779	133.46239	-225.79303	608.8634	55.284698	-221.44682	642.30414	118.84711	-221.1579	625.7608	96.911224	-211.94154	624.87891	99.058823	-249.46582
474	4.73	249.21899	1410.6979	-157.70229	237.14619	1383.5647	-148.24269	235.04539	1386.58	-186.05595	263.9371	1034.9502	-45.143188	263.02344	1032.881	-294.99121	429.72266	1046.1768	-88.420074	428.60464	1051.7332	-205.93246	439.17462	1105.6588	-153.47643	444.63483	1080.6755	-166.04582	447.77939	1074.377	-127.08784	139.78735	538.22119	-23.670544	86.987206	649.78845	-71.972099	108.23595	731.11969	-56.028763	168.44489	851.83099	-40.572422	201.7236	677.59015	3.3194985	259.86761	815.20227	31.894609	243.10226	770.12598	37.970791	233.98305	741.50464	33.877655	204.43353	764.36322	39.802452	107.05827	466.45084	-17.648548	50.870914	476.99286	-72.985603	-5.6951342	231.06152	-83.363052	0.56618577	105.58277	-54.528542	34.147896	424.86639	-101.07838	21.244688	399.96585	-92.953041	36.303108	395.43677	-128.5157	56.030483	51.946831	-95.982857	-144.29976	131.19566	-85.587311	-73.746094	152.70517	-80.710945	-101.7877	145.76215	-70.49707	-104.02393	153.43826	-107.9959	486.05054	525.48926	-294.47391	371.0372	572.25256	-242.94904	313.11804	642.26123	-247.42297	265.05853	767.06458	-263.17822	421.57175	671.80328	-321.14545	370.99591	809.30792	-348.4296	396.90375	763.23798	-352.78662	394.9606	734.75891	-349.20544	431.00345	745.5285	-341.41095	527.63916	469.56137	-296.24789	482.86157	435.23068	-251.82924	669.58844	237.8849	-277.69458	622.58301	227.07361	-232.80424	722.79492	144.61685	-261.6308	523.55164	381.9855	-195.59695	541.29553	360.61569	-188.48381				807.07422	142.41122	-226.23251	606.3678	54.554993	-221.68217	636.4126	119.00778	-221.69434	621.15509	96.218094	-212.64513	619.57819	98.263817	-249.77751
475	4.74	233.18088	1410.1812	-156.46895	221.09938	1382.9946	-147.04996	219.01389	1385.9948	-184.81686	245.76158	1033.9877	-43.583488	244.74269	1031.6504	-293.60178	411.96292	1044.974	-87.266388	410.51886	1049.921	-205.04385	421.18518	1104.5071	-152.5844	426.599	1079.46	-165.11983	429.92853	1073.1183	-126.23927	121.83844	537.32599	-23.055922	69.272423	649.50549	-71.147186	90.998322	729.68903	-55.783005	150.15862	850.28186	-40.181011	183.37393	676.2171	4.1244011	241.28104	813.93207	32.963455	224.52631	768.83167	39.092422	215.54938	740.16638	34.815876	185.93341	762.99384	40.347008	90.080772	465.20108	-17.995159	34.509121	474.68286	-74.126701	-16.84165	227.50836	-83.938904	-7.4783683	102.65773	-54.923965	19.591108	421.84424	-102.44972	7.3050547	396.54129	-94.522758	23.032877	392.21173	-129.60236	53.519363	54.821507	-94.529259	-152.47495	120.82817	-88.461197	-83.541061	145.84067	-82.272903	-111.38975	137.36342	-72.647972	-113.39803	145.39082	-110.07174	466.04364	523.3468	-294.03027	350.2605	569.71613	-243.30228	294.46088	640.47095	-246.55882	246.19542	765.77631	-262.25125	401.69843	669.72919	-320.7265	352.82083	807.82758	-346.64038	378.13516	761.74384	-351.33533	376.04105	733.61401	-347.82343	412.03381	743.93396	-339.97852	508.54504	468.25485	-296.37704	464.45795	432.38412	-252.09724	658.81384	241.82372	-277.96579	611.45502	228.96506	-233.25452	714.67621	150.18605	-262.83615	507.28802	380.15833	-195.866	525.78406	359.50497	-188.80258				798.67902	152.30545	-226.75581	603.88806	53.460743	-221.92953	629.27881	119.33841	-222.13777	615.54626	95.619812	-213.10291	614.14508	97.547974	-250.39316
476	4.75	217.22348	1409.9307	-155.30687	204.91885	1382.7935	-145.84976	202.96201	1385.8058	-183.63124	227.78053	1033.3278	-42.297638	226.36327	1030.6663	-292.16599	393.9429	1043.9437	-86.277588	392.56714	1049.1377	-204.10001	403.25284	1103.6411	-151.56981	408.6066	1078.4789	-164.24005	412.1315	1072.2401	-125.30924	104.41386	536.69971	-22.14538	51.745171	648.07513	-70.844719	73.142021	728.37579	-56.053146	131.66675	849.07587	-39.648701	166.55138	675.02307	4.263617	222.84679	812.86096	33.988628	206.03175	767.66431	40.137936	198.28284	739.26276	35.669769	167.83397	761.77545	40.465378	73.36396	464.26559	-17.623001	18.308702	472.78214	-74.369461	-27.424458	224.63063	-84.501617	-14.699678	99.965553	-54.859505	5.0668058	419.85132	-102.94374	-6.9083791	394.40967	-95.092941	9.4996271	390.23492	-129.80385	48.841629	55.97855	-94.122925	-159.62772	110.15315	-91.061874	-92.538544	138.83626	-83.507935	-119.97944	128.68504	-74.452835	-121.8858	136.99051	-111.81499	444.03421	521.15546	-294.07642	327.8996	567.08765	-243.57832	274.11554	638.77246	-246.05898	226.65822	764.86963	-261.16757	381.46057	667.89447	-319.69412	333.81229	806.13116	-344.93304	358.71219	760.29694	-349.68527	356.19083	731.92383	-347.02066	392.12833	742.05035	-338.52063	488.29059	466.97388	-296.91089	444.30695	429.13379	-252.38284	646.06451	245.96172	-278.51837	599.20978	231.39667	-234.46916	704.71075	155.83249	-263.38837	489.4039	378.2822	-196.36792	508.75305	358.28488	-189.26816				788.45563	163.19794	-227.28873	600.40918	52.798855	-221.96109	621.19189	119.5967	-222.58051	609.28503	94.879097	-213.41115	607.78864	96.654388	-250.76497
